{
    "accessors" : [
        {
            "bufferView" : 0, 
            "componentType" : 5121, 
            "count" : 372, 
            "max" : [
                191
            ], 
            "min" : [
                0
            ], 
            "type" : "SCALAR"
        }, 
        {
            "bufferView" : 1, 
            "componentType" : 5126, 
            "count" : 192, 
            "max" : [
                1.1532812118530273, 
                1.0, 
                1.0000004768371582
            ], 
            "min" : [
                -1.2446484565734863, 
                -0.9999999403953552, 
                -1.0
            ], 
            "type" : "VEC3"
        }, 
        {
            "bufferView" : 2, 
            "componentType" : 5126, 
            "count" : 192, 
            "max" : [
                0.9913852214813232, 
                1.0, 
                0.9960110783576965
            ], 
            "min" : [
                -0.9870284199714661, 
                -1.0, 
                -0.9960110783576965
            ], 
            "type" : "VEC3"
        }, 
        {
            "bufferView" : 3, 
            "componentType" : 5123, 
            "count" : 690, 
            "max" : [
                477
            ], 
            "min" : [
                0
            ], 
            "type" : "SCALAR"
        }, 
        {
            "bufferView" : 4, 
            "componentType" : 5126, 
            "count" : 478, 
            "max" : [
                2.013756275177002, 
                11.039413452148438, 
                4.0841898918151855
            ], 
            "min" : [
                -2.0250658988952637, 
                -0.7463607788085938, 
                -1.627581238746643
            ], 
            "type" : "VEC3"
        }, 
        {
            "bufferView" : 5, 
            "componentType" : 5126, 
            "count" : 478, 
            "max" : [
                0.9973894953727722, 
                1.0, 
                1.0
            ], 
            "min" : [
                -0.9999167919158936, 
                -1.0, 
                -1.0
            ], 
            "type" : "VEC3"
        }, 
        {
            "bufferView" : 6, 
            "componentType" : 5121, 
            "count" : 90, 
            "max" : [
                31
            ], 
            "min" : [
                0
            ], 
            "type" : "SCALAR"
        }, 
        {
            "bufferView" : 7, 
            "componentType" : 5126, 
            "count" : 32, 
            "max" : [
                2.0137550830841064, 
                -0.7463607788085938, 
                4.0841898918151855
            ], 
            "min" : [
                -1.8652667999267578, 
                -0.7463607788085938, 
                -1.627581238746643
            ], 
            "type" : "VEC3"
        }, 
        {
            "bufferView" : 8, 
            "componentType" : 5126, 
            "count" : 32, 
            "max" : [
                1.0394526128720827e-08, 
                -1.0, 
                -0.0
            ], 
            "min" : [
                1.0394526128720827e-08, 
                -1.0, 
                -0.0
            ], 
            "type" : "VEC3"
        }, 
        {
            "bufferView" : 9, 
            "componentType" : 5121, 
            "count" : 372, 
            "max" : [
                191
            ], 
            "min" : [
                0
            ], 
            "type" : "SCALAR"
        }, 
        {
            "bufferView" : 10, 
            "componentType" : 5126, 
            "count" : 192, 
            "max" : [
                1.1532812118530273, 
                1.0463519096374512, 
                3.3298263549804688
            ], 
            "min" : [
                -1.2446484565734863, 
                -0.953648030757904, 
                1.3298258781433105
            ], 
            "type" : "VEC3"
        }, 
        {
            "bufferView" : 11, 
            "componentType" : 5126, 
            "count" : 192, 
            "max" : [
                0.9913852214813232, 
                1.0, 
                0.9960110783576965
            ], 
            "min" : [
                -0.9870284795761108, 
                -1.0, 
                -0.9960110783576965
            ], 
            "type" : "VEC3"
        }, 
        {
            "bufferView" : 12, 
            "componentType" : 5121, 
            "count" : 84, 
            "max" : [
                59
            ], 
            "min" : [
                0
            ], 
            "type" : "SCALAR"
        }, 
        {
            "bufferView" : 13, 
            "componentType" : 5126, 
            "count" : 60, 
            "max" : [
                0.07424522936344147, 
                11.039413452148438, 
                3.866797924041748
            ], 
            "min" : [
                -1.410193681716919, 
                -0.7463607788085938, 
                -1.4101914167404175
            ], 
            "type" : "VEC3"
        }, 
        {
            "bufferView" : 14, 
            "componentType" : 5126, 
            "count" : 60, 
            "max" : [
                -0.4694957733154297, 
                0.6022292375564575, 
                0.8087849020957947
            ], 
            "min" : [
                -0.7448850274085999, 
                -6.955045961376527e-08, 
                -0.8087865114212036
            ], 
            "type" : "VEC3"
        }
    ], 
    "asset" : {
        "generator" : "Khronos Blender glTF 2.0 exporter", 
        "version" : "2.0"
    }, 
    "bufferViews" : [
        {
            "buffer" : 0, 
            "byteLength" : 372, 
            "byteOffset" : 0, 
            "target" : 34963
        }, 
        {
            "buffer" : 0, 
            "byteLength" : 2304, 
            "byteOffset" : 372, 
            "target" : 34962
        }, 
        {
            "buffer" : 0, 
            "byteLength" : 2304, 
            "byteOffset" : 2676, 
            "target" : 34962
        }, 
        {
            "buffer" : 0, 
            "byteLength" : 1380, 
            "byteOffset" : 4980, 
            "target" : 34963
        }, 
        {
            "buffer" : 0, 
            "byteLength" : 5736, 
            "byteOffset" : 6360, 
            "target" : 34962
        }, 
        {
            "buffer" : 0, 
            "byteLength" : 5736, 
            "byteOffset" : 12096, 
            "target" : 34962
        }, 
        {
            "buffer" : 0, 
            "byteLength" : 90, 
            "byteOffset" : 17832, 
            "target" : 34963
        }, 
        {
            "buffer" : 0, 
            "byteLength" : 384, 
            "byteOffset" : 17924, 
            "target" : 34962
        }, 
        {
            "buffer" : 0, 
            "byteLength" : 384, 
            "byteOffset" : 18308, 
            "target" : 34962
        }, 
        {
            "buffer" : 0, 
            "byteLength" : 372, 
            "byteOffset" : 18692, 
            "target" : 34963
        }, 
        {
            "buffer" : 0, 
            "byteLength" : 2304, 
            "byteOffset" : 19064, 
            "target" : 34962
        }, 
        {
            "buffer" : 0, 
            "byteLength" : 2304, 
            "byteOffset" : 21368, 
            "target" : 34962
        }, 
        {
            "buffer" : 0, 
            "byteLength" : 84, 
            "byteOffset" : 23672, 
            "target" : 34963
        }, 
        {
            "buffer" : 0, 
            "byteLength" : 720, 
            "byteOffset" : 23756, 
            "target" : 34962
        }, 
        {
            "buffer" : 0, 
            "byteLength" : 720, 
            "byteOffset" : 24476, 
            "target" : 34962
        }
    ], 
    "buffers" : [
        {
            "byteLength" : 25196, 
            "uri" : "flyingcar.bin"
        }
    ], 
    "materials" : [
        {
            "name" : "Material.001", 
            "pbrMetallicRoughness" : {
                "baseColorFactor" : [
                    0.4119432510725147, 
                    0.585620412016219, 
                    0.640000066757203, 
                    1.0
                ], 
                "metallicFactor" : 0.0
            }
        }, 
        {
            "name" : "Material.002", 
            "pbrMetallicRoughness" : {
                "baseColorFactor" : [
                    0.41193414348265733, 
                    0.5843687621410005, 
                    0.6392822360885475, 
                    1.0
                ], 
                "metallicFactor" : 0.0
            }
        }, 
        {
            "name" : "Material.004", 
            "pbrMetallicRoughness" : {
                "baseColorFactor" : [
                    0.30060260743800704, 
                    0.0013024998091533749, 
                    0.007450524828590821, 
                    1.0
                ], 
                "metallicFactor" : 0.0
            }
        }, 
        {
            "name" : "Material.005", 
            "pbrMetallicRoughness" : {
                "baseColorFactor" : [
                    0.06262937877519992, 
                    0.003041551121198402, 
                    0.006187905463396093, 
                    1.0
                ], 
                "metallicFactor" : 0.0
            }
        }, 
        {
            "name" : "Material.006", 
            "pbrMetallicRoughness" : {
                "baseColorFactor" : [
                    0.6400000190734865, 
                    0.6400000190734865, 
                    0.6400000190734865, 
                    1.0
                ], 
                "metallicFactor" : 0.0
            }
        }
    ], 
    "meshes" : [
        {
            "name" : "Cylinder.004", 
            "primitives" : [
                {
                    "attributes" : {
                        "NORMAL" : 2, 
                        "POSITION" : 1
                    }, 
                    "indices" : 0, 
                    "material" : 1
                }, 
                {
                    "attributes" : {
                        "NORMAL" : 5, 
                        "POSITION" : 4
                    }, 
                    "indices" : 3, 
                    "material" : 2
                }, 
                {
                    "attributes" : {
                        "NORMAL" : 8, 
                        "POSITION" : 7
                    }, 
                    "indices" : 6, 
                    "material" : 3
                }, 
                {
                    "attributes" : {
                        "NORMAL" : 11, 
                        "POSITION" : 10
                    }, 
                    "indices" : 9, 
                    "material" : 0
                }, 
                {
                    "attributes" : {
                        "NORMAL" : 14, 
                        "POSITION" : 13
                    }, 
                    "indices" : 12, 
                    "material" : 4
                }
            ]
        }
    ], 
    "nodes" : [
        {
            "mesh" : 0, 
            "name" : "Cylinder", 
            "rotation" : [
                0.0, 
                0.0, 
                -0.7071068286895752, 
                0.7071068286895752
            ], 
            "scale" : [
                0.4763467311859131, 
                0.5788484215736389, 
                0.627683162689209
            ], 
            "translation" : [
                -4.225381851196289, 
                -0.060228295624256134, 
                -0.2166140228509903
            ]
        }
    ], 
    "scene" : 0, 
    "scenes" : [
        {
            "name" : "Scene", 
            "nodes" : [
                0
            ]
        }
    ]
}
